<svg xmlns="http://www.w3.org/2000/svg" viewBox="0 0 14.22 14.22"><g
    id="Layer_2"
    data-name="Layer 2"
  ><g id="Layer_1-2" data-name="Layer 1"><path
        id="facebook"
        class="fill-only"
        d="M12.69,0H1.52A1.52,1.52,0,0,0,0,1.52H0V12.69a1.52,1.52,0,0,0,1.52,1.53H5.88V9.38h-2V7.11h2V5.37a2.77,2.77,0,0,1,3-3.06,11.52,11.52,0,0,1,1.76.16V4.4h-1A1.14,1.14,0,0,0,8.34,5.63V7.11h2.18l-.35,2.27H8.34v4.84h4.35a1.52,1.52,0,0,0,1.53-1.53V1.52A1.52,1.52,0,0,0,12.69,0Z"
      /></g></g></svg>
