<svg xmlns="http://www.w3.org/2000/svg" viewBox="0 0 14.3 14.3"><g
    id="Layer_2"
    data-name="Layer 2"
  ><g id="Layer_1-2" data-name="Layer 1"><path
        id="instagram"
        class="fill-only"
        d="M7.15,3.48a3.67,3.67,0,1,0,3.67,3.67h0A3.68,3.68,0,0,0,7.16,3.48Zm0,6A2.38,2.38,0,1,1,9.53,7.15h0A2.38,2.38,0,0,1,7.15,9.53Zm4.67-6.2A.86.86,0,1,1,11,2.48h0a.85.85,0,0,1,.85.85Zm2.43.87a4.24,4.24,0,0,0-1.16-3,4.24,4.24,0,0,0-3-1.16C8.92,0,5.38,0,4.2.05a4.27,4.27,0,0,0-3,1.15,4.26,4.26,0,0,0-1.15,3C0,5.38,0,8.92.05,10.1a4.23,4.23,0,0,0,1.15,3,4.27,4.27,0,0,0,3,1.16c1.18.06,4.72.06,5.9,0a4.24,4.24,0,0,0,3-1.16,4.26,4.26,0,0,0,1.16-3c.07-1.18.07-4.72,0-5.9Zm-1.53,7.16a2.38,2.38,0,0,1-1.35,1.36A16,16,0,0,1,7.15,13a15.86,15.86,0,0,1-4.21-.29,2.4,2.4,0,0,1-1.36-1.36,15.45,15.45,0,0,1-.29-4.21,15.93,15.93,0,0,1,.29-4.22A2.42,2.42,0,0,1,2.94,1.57a15.86,15.86,0,0,1,4.21-.28,15.52,15.52,0,0,1,4.22.29,2.36,2.36,0,0,1,1.35,1.35A15.55,15.55,0,0,1,13,7.15,15.45,15.45,0,0,1,12.72,11.36Z"
      /></g></g></svg>
