<svg xmlns="http://www.w3.org/2000/svg" viewBox="0 0 61.72 10.99"><g
    id="logo"
    data-name="Layer 2"
  ><g id="Layer_2" data-name="HeyGeorgia"><path
        class="letter"
        d="M0,.5H1.8V3.73H4.61V.5H6.4V8.66H4.61V5.29H1.8V8.66H0Z"
      /><path
        class="letter"
        d="M7.79,6.14V4.92c0-1.74,1-2.67,2.78-2.67s2.8,1,2.8,2.69V6.08H9.56V6.2c0,.82.33,1.21,1.1,1.21.6,0,.94-.24,1-.67h1.69c-.07,1.36-1,2.06-2.69,2.06C8.75,8.8,7.79,7.9,7.79,6.14Zm3.9-1.31c0-.84-.31-1.18-1.06-1.18S9.56,4,9.56,4.83Z"
      /><path
        class="letter"
        d="M14.6,9.45h.7c.34,0,.48-.1.6-.47L16,8.59,13.9,2.4h1.88l1.16,3.91L18,2.4H19.8L17.58,9.2c-.42,1.29-.85,1.64-2.08,1.64h-.9Z"
      /><path
        class="letter"
        d="M20.65,5.55V3.61c0-2.18,1.07-3.25,3.19-3.25,2,0,3.08.91,3.15,2.67H25.28c-.06-.75-.48-1.12-1.39-1.12s-1.44.5-1.44,1.8V5.46c0,1.28.42,1.8,1.49,1.8s1.41-.47,1.41-1.67H24V4h3.06V5.59c0,2.18-1,3.21-3.17,3.21S20.65,7.74,20.65,5.55Z"
      /><path
        class="letter"
        d="M28.21,6.14V4.92c0-1.74,1-2.67,2.79-2.67a2.46,2.46,0,0,1,2.79,2.69V6.08H30V6.2c0,.82.32,1.21,1.09,1.21.6,0,1-.24,1-.67h1.69c-.07,1.36-1,2.06-2.68,2.06C29.17,8.8,28.21,7.9,28.21,6.14Zm3.9-1.31c0-.84-.31-1.18-1.05-1.18S30,4,30,4.83Z"
      /><path
        class="letter"
        d="M34.87,6.1V5c0-1.8.94-2.7,2.84-2.7s2.84.9,2.84,2.7V6.1c0,1.8-.95,2.7-2.84,2.7S34.87,7.9,34.87,6.1Zm3.91,0V5c0-.91-.32-1.3-1.07-1.3s-1.07.39-1.07,1.3V6.07c0,.91.31,1.29,1.07,1.29S38.78,7,38.78,6.07Z"
      /><path
        class="letter"
        d="M41.83,2.4h1.51l.07,1.16A1.49,1.49,0,0,1,45,2.28h.47V3.93h-.34A1.34,1.34,0,0,0,43.6,5.16v3.5H41.83Z"
      /><path
        class="letter"
        d="M46.42,8.92h1.67c0,.48.35.67,1,.67.78,0,1.11-.3,1.11-1.1V7.77a2.08,2.08,0,0,1-1.62.65c-1.43,0-2.23-.89-2.23-2.58v-1c0-1.69.8-2.57,2.23-2.57a2.11,2.11,0,0,1,1.83.9l0-.75h1.51V8.49c0,1.72-.93,2.5-2.85,2.5C47.42,11,46.5,10.39,46.42,8.92ZM50.17,6V4.64A1.28,1.28,0,0,0,49,3.69c-.58,0-.88.34-.88,1.14v1c0,.82.3,1.14.87,1.14A1.27,1.27,0,0,0,50.17,6Z"
      /><path
        class="letter"
        d="M53.36,0h1.87V1.51H53.36Zm0,2.4h1.77V8.66H53.41Z"
      /><path
        class="letter"
        d="M56.3,6.86c0-1.32.83-2.05,2.49-2.05h1.15v-.2c0-.65-.25-1-.88-1s-.85.27-.88.7H56.47c.09-1.39.93-2.1,2.66-2.1s2.59.75,2.59,2.38v4h-1.5l-.06-.78a2.16,2.16,0,0,1-1.88.92A1.78,1.78,0,0,1,56.3,6.86Zm3.64-.16V6h-.82c-.81,0-1.07.28-1.07.74s.26.69.77.69A1.2,1.2,0,0,0,59.94,6.7Z"
      /></g></g></svg>
