<svg xmlns="http://www.w3.org/2000/svg" viewBox="0 0 15.44 12.54"><g
    id="Layer_2"
    data-name="Layer 2"
  ><g id="Layer_1-2" data-name="Layer 1"><path
        id="twitter"
        class="fill-only"
        d="M13.85,3.13c0,.13,0,.27,0,.41a8.94,8.94,0,0,1-9,9A8.92,8.92,0,0,1,0,11.12a6.45,6.45,0,0,0,.76,0A6.34,6.34,0,0,0,4.69,9.81a3.19,3.19,0,0,1-3-2.2,4,4,0,0,0,.6,0,2.91,2.91,0,0,0,.83-.11A3.15,3.15,0,0,1,.63,4.45v0a3.27,3.27,0,0,0,1.43.4,3.15,3.15,0,0,1-1-4.23A9,9,0,0,0,7.6,3.89a3.54,3.54,0,0,1-.07-.73A3.16,3.16,0,0,1,13,1a6.28,6.28,0,0,0,2-.76A3.16,3.16,0,0,1,13.62,2a6.37,6.37,0,0,0,1.82-.49A6.87,6.87,0,0,1,13.85,3.13Z"
      /></g></g></svg>
